# xmcd
#
# Track frame offsets: 
#        150
#        19692
#        36507
#        51188
#        70129
#        87136
#        104223
#        121493
#        138014
#        155300
#        169343
#        186419
#        203941
#        220088
#        237694
#        250281
#        267044
#        290491
#
# Disc length: 4064 seconds
#
# Revision: 0
# Processed by: cddbd v1.5.2PL0 Copyright (c) Steve Scherf et al.
# Submitted via: ExactAudioCopy v1.3
#
DISCID=130fde12
DTITLE=竹内まりや - Portrait (40th Anniversary Edition)
DYEAR=1981
DGENRE=J-Pop
TTITLE0=ラスト・トレイン
TTITLE1=Crying All Night Love
TTITLE2=ブラックボード先生
TTITLE3=悲しきNight and Day
TTITLE4=僕の街へ
TTITLE5=雨に消えたさよなら
TTITLE6=リンダ
TTITLE7=イチゴの誘惑
TTITLE8=Natalie
TTITLE9=ウエイトレス
TTITLE10=Special Delivery ～特別航空便～
TTITLE11=ポートレイト ～ローレンスパークの想い出～
TTITLE12=ウエイトレス (Live Version)
TTITLE13=Natalie (Live Version)
TTITLE14=Special Delivery ～特別航空便～ (Live Version)
TTITLE15=竹内まりや with 伊藤銀次 - Crying All Night Love (Live Version)
TTITLE16=ラスト・トレイン (Live Version)
TTITLE17=リンダ (Live Version)
EXTD=
EXTT0=
EXTT1=
EXTT2=
EXTT3=
EXTT4=
EXTT5=
EXTT6=
EXTT7=
EXTT8=
EXTT9=
EXTT10=
EXTT11=
EXTT12=
EXTT13=
EXTT14=
EXTT15=
EXTT16=
EXTT17=
PLAYORDER=
